Coordinates
version=1
nRows=9
nColumns=24
inDegrees=yes

Units are S.I. units (second, meters, Newtons, ...)
Angles are in degrees.

endheader
time	pelvis_tilt	pelvis_list	pelvis_rotation	pelvis_tx	pelvis_ty	pelvis_tz	hip_flexion_r	hip_adduction_r	hip_rotation_r	knee_angle_r	ankle_angle_r	subtalar_angle_r	mtp_angle_r	hip_flexion_l	hip_adduction_l	hip_rotation_l	knee_angle_l	ankle_angle_l	subtalar_angle_l	mtp_angle_l	lumbar_extension	lumbar_bending	lumbar_rotation
      3.88000000	      7.20999330	      1.67906716	     18.65632184	      0.63039378	      0.89784172	     -0.32847234	    -22.70691495	      6.53979106	    -19.60634330	    -23.11091775	      9.57108672	      8.97961475	      0.00000000	     11.20554666	      9.10121550	     13.49668397	     -6.39174424	      4.04336017	     -9.46583272	      0.00000000	    -24.14537270	      5.45045290	      0.33316784
      3.89000000	      7.25863996	      2.34844960	     18.54517772	      0.64854221	      0.89693552	     -0.33043008	    -20.99394064	      4.78706903	    -20.29658068	    -28.22469540	      6.62379277	      9.33903931	      0.00000000	     10.77695216	      9.92081193	     13.05090461	     -7.79731272	      3.95398844	    -10.01935631	      0.00000000	    -24.12322362	      4.84569974	     -0.80846141
      3.90000000	      7.20698945	      3.15268481	     18.34818025	      0.66607476	      0.89609213	     -0.33211269	    -18.90781784	      2.75107502	    -20.54374466	    -33.59589048	      3.88491976	      9.90716535	      0.00000000	     10.71678386	     10.91354485	     12.50236584	     -9.83895605	      4.35831958	    -10.37767079	      0.00000000	    -24.17245734	      4.03013387	     -1.89423578
      3.91000000	      7.05381240	      4.00380371	     18.08937188	      0.68292639	      0.89524607	     -0.33333480	    -16.46490017	      0.65360324	    -20.22337658	    -39.03317249	      1.67476730	     10.57442729	      0.00000000	     11.20023444	     11.91887065	     11.12218242	    -12.67524684	      6.01139132	     -9.26109745	      0.00000000	    -24.27819405	      3.08218432	     -2.99043108
      3.92000000	      6.84276711	      4.85675070	     17.70167083	      0.69926914	      0.89443557	     -0.33413353	    -13.75487725	     -1.40943667	    -19.36078229	    -44.37864472	      0.40339894	     11.59811582	      0.00000000	     11.87584415	     12.87515478	      9.87625782	    -15.73449681	      7.95629081	     -8.25307719	      0.00000000	    -24.43986754	      2.04768249	     -3.93430146
      3.93000000	      6.65526993	      5.64875488	     17.14238034	      0.71527044	      0.89385353	     -0.33450527	    -10.91007944	     -3.27158570	    -17.96832661	    -49.41741182	      0.11811473	     12.86143617	      0.00000000	     12.48832749	     13.67261284	      8.77389223	    -18.65327312	     10.03689126	     -7.35944518	      0.00000000	    -24.69029613	      1.01154320	     -4.68843119
      3.94000000	      6.54499651	      6.33785193	     16.34832082	      0.73108860	      0.89370421	     -0.33449181	     -8.01623621	     -4.83510258	    -16.09316294	    -53.99917283	      0.71283644	     14.19602947	      0.00000000	     12.80563641	     14.25327568	      7.82781984	    -21.08863949	     12.06301391	     -6.69456927	      0.00000000	    -25.03537707	      0.02457783	     -5.21739695
      3.95000000	      6.54331174	      6.89055016	     15.30989561	      0.74685647	      0.89415094	     -0.33421923	     -5.15323079	     -6.04655043	    -13.86978125	    -58.00240327	      2.00174021	     15.53702857	      0.00000000	     12.65548542	     14.60711713	      7.08838103	    -22.79701576	     13.84872521	     -6.43283364	      0.00000000	    -25.45706549	     -0.85542865	     -5.53375991
      3.96000000	      6.58791548	      7.26780699	     13.96949143	      0.76270337	      0.89519088	     -0.33358464	     -2.25845137	     -6.84193541	    -11.29022908	    -61.37595024	      3.57169773	     16.42898687	      0.00000000	     12.08352870	     14.67350405	      6.22849511	    -23.71637070	     15.51581965	     -6.11244938	      0.00000000	    -25.83527805	     -1.64986048	     -5.64695694
